<svg xmlns="http://www.w3.org/2000/svg" width="1024" height="1024" viewBox="0 0 1024 1024">
  <rect width="1024" height="1024" fill="#142A47"/>
  <g transform="translate(224,200) scale(6.2)">
    <rect x="42" y="20" width="16" height="12" rx="2" fill="#E9A13B"/>
    <polygon points="40,20 60,20 50,10" fill="#E9A13B"/>
    <circle cx="50" cy="9" r="2.4" fill="#F5EFE3"/>
    <rect x="39" y="32" width="22" height="4" rx="1.5" fill="#F5EFE3"/>
    <path d="M41 36 L59 36 L65 86 L35 86 Z" fill="#F5EFE3"/>
    <path d="M42.4 48 L57.6 48 L58.6 56 L41.4 56 Z" fill="#E9A13B"/>
    <path d="M39.6 70 L60.4 70 L61.4 78 L38.6 78 Z" fill="#E9A13B"/>
    <path d="M46 86 L46 78 Q50 74 54 78 L54 86 Z" fill="#E9A13B"/>
    <rect x="31" y="86" width="38" height="6" rx="2" fill="#F5EFE3"/>
  </g>
</svg>
